# xmcd
#
# Track frame offsets: 
#        150
#        12866
#        26688
#        38118
#        51377
#        67004
#        90868
#        107645
#        123028
#        138979
#        154936
#        174887
#        191765
#        207507
#        223458
#
# Disc length: 3122 seconds
#
# Revision: 0
# Processed by: cddbd v1.5.2PL0 Copyright (c) Steve Scherf et al.
# Submitted via: ExactAudioCopy v0.99pb5
#
DISCID=d20c300f
DTITLE=Gary Eller with Bona Fide and Friends - Appalachian Sons
DYEAR=2006
DGENRE=Bluegrass
TTITLE0=Little Pocket Bible
TTITLE1=Roadkill Cuisine
TTITLE2=Diller's Bottom
TTITLE3=tater
TTITLE4=Appalachian Sons
TTITLE5=Roll On Ohio
TTITLE6=Slim Chance Hill
TTITLE7=The Auction
TTITLE8=Palestine Church
TTITLE9=Aunt Ginny's Waltz
TTITLE10=L.V. Came To Town
TTITLE11=Moundsville Pen Blues
TTITLE12=Coal Train Rumble
TTITLE13=Thad and Dolly
TTITLE14=Rhododendron
EXTD=
EXTT0=
EXTT1=
EXTT2=
EXTT3=
EXTT4=
EXTT5=
EXTT6=
EXTT7=
EXTT8=
EXTT9=
EXTT10=
EXTT11=
EXTT12=
EXTT13=
EXTT14=
PLAYORDER=
